<?xml version="1.0" encoding="UTF-8" standalone="no"?>
<!-- Created with Inkscape (http://www.inkscape.org/) -->

<svg
   width="135.58299mm"
   height="25.002001mm"
   viewBox="0 0 135.583 25.002"
   version="1.1"
   id="svg1"
   xml:space="preserve"
   inkscape:version="1.4.2 (f4327f4, 2025-05-13)"
   sodipodi:docname="logo.svg"
   inkscape:export-filename="logo.png"
   inkscape:export-xdpi="184.55211"
   inkscape:export-ydpi="184.55211"
   xmlns:inkscape="http://www.inkscape.org/namespaces/inkscape"
   xmlns:sodipodi="http://sodipodi.sourceforge.net/DTD/sodipodi-0.dtd"
   xmlns="http://www.w3.org/2000/svg"
   xmlns:svg="http://www.w3.org/2000/svg"><sodipodi:namedview
     id="namedview1"
     pagecolor="#ffffff"
     bordercolor="#000000"
     borderopacity="0.25"
     inkscape:showpageshadow="2"
     inkscape:pageopacity="0.0"
     inkscape:pagecheckerboard="0"
     inkscape:deskcolor="#d1d1d1"
     inkscape:document-units="mm"
     inkscape:zoom="1.990573"
     inkscape:cx="286.60089"
     inkscape:cy="60.786516"
     inkscape:window-width="1920"
     inkscape:window-height="992"
     inkscape:window-x="-8"
     inkscape:window-y="-8"
     inkscape:window-maximized="1"
     inkscape:current-layer="layer1" /><defs
     id="defs1" /><g
     inkscape:label="Layer 1"
     inkscape:groupmode="layer"
     id="layer1"><path
       id="rect1"
       style="fill:#29647f;fill-opacity:1;stroke-width:0.234693"
       d="M 3.934127,0 C 1.754631,0 0,1.754631 0,3.934127 v 17.132287 c 0,2.179496 1.754631,3.934127 3.934127,3.934127 h 30.290657 c 2.179496,0 3.934127,-1.754631 3.934127,-3.934127 V 3.934127 C 38.158911,1.754631 36.40428,0 34.224784,0 Z m 9.010819,3.75946 c 2.274158,0 4.172067,0.827694 5.693193,2.483053 1.054245,1.144145 1.79928,2.7383148 2.236039,4.78317 l -4.913395,0.35295 C 15.411069,9.5609838 14.368478,8.6521848 12.832292,8.6521848 c -0.978943,0 -1.788715,0.365235 -2.428793,1.09554 C 9.770952,10.478031 9.45472,11.407236 9.45472,12.535152 c 0,1.087344 0.312394,1.988084 0.93741,2.702161 0.625017,0.705962 1.415597,1.05885 2.371949,1.05885 0.971411,0 1.743316,-0.312594 2.315621,-0.937411 0.579835,-0.624817 0.922419,-1.521269 1.027844,-2.689758 l 4.80074,0.133842 c -0.316273,2.677787 -1.178234,4.746762 -2.586405,6.207373 -1.40064,1.460611 -3.23049,2.191081 -5.489587,2.191081 -2.296749,0 -4.221011,-0.827694 -5.772258,-2.483053 -1.543716,-1.663474 -2.315621,-3.72439 -2.315621,-6.183085 0,-2.474924 0.786742,-4.5562462 2.36058,-6.244063 C 8.686361,4.603271 10.633137,3.75946 12.944946,3.75946 Z m 8.584489,0.413412 h 11.962061 l -4.789372,11.843204 h 4.733044 v 4.771285 H 21.800736 L 26.56737,8.9441568 h -5.037935 z"
       inkscape:export-filename="micrologo.png"
       inkscape:export-xdpi="532.50995"
       inkscape:export-ydpi="532.50995" /><text
       xml:space="preserve"
       style="font-size:12.7px;font-family:'Noto Sans';-inkscape-font-specification:'Noto Sans';text-align:start;writing-mode:lr-tb;direction:ltr;text-anchor:start;fill:#29647f;stroke-width:0.264583"
       x="45.85677"
       y="12.200138"
       id="text1"><tspan
         sodipodi:role="line"
         id="tspan1"
         style="font-style:normal;font-variant:normal;font-weight:bold;font-stretch:normal;font-size:12.7px;font-family:'Reem Kufi';-inkscape-font-specification:'Reem Kufi Bold';stroke-width:0.264583"
         x="45.85677"
         y="12.200138">Manufacturing</tspan></text><text
       xml:space="preserve"
       style="font-style:normal;font-variant:normal;font-weight:bold;font-stretch:normal;font-size:9.87778px;font-family:'Reem Kufi';-inkscape-font-specification:'Reem Kufi Bold';text-align:start;writing-mode:lr-tb;direction:ltr;text-anchor:start;fill:#29647f;stroke-width:0.264583"
       x="46.321983"
       y="20.901922"
       id="text4"><tspan
         sodipodi:role="line"
         id="tspan4"
         style="font-style:normal;font-variant:normal;font-weight:normal;font-stretch:normal;font-size:9.87778px;font-family:'Reem Kufi';-inkscape-font-specification:'Reem Kufi';fill:#333333;stroke-width:0.264583"
         x="46.321983"
         y="20.901922">industrial solutions</tspan></text></g></svg>
