<?xml version="1.0" encoding="UTF-8" standalone="no"?>
<!-- Created with Inkscape (http://www.inkscape.org/) -->

<svg
   width="137.077mm"
   height="27.527mm"
   viewBox="0 0 137.077 27.527"
   version="1.1"
   id="svg1"
   xml:space="preserve"
   inkscape:version="1.4.2 (f4327f4, 2025-05-13)"
   sodipodi:docname="logo.svg"
   inkscape:export-filename="logo.png"
   inkscape:export-xdpi="184.55211"
   inkscape:export-ydpi="184.55211"
   xmlns:inkscape="http://www.inkscape.org/namespaces/inkscape"
   xmlns:sodipodi="http://sodipodi.sourceforge.net/DTD/sodipodi-0.dtd"
   xmlns="http://www.w3.org/2000/svg"
   xmlns:svg="http://www.w3.org/2000/svg"><sodipodi:namedview
     id="namedview1"
     pagecolor="#ffffff"
     bordercolor="#000000"
     borderopacity="0.25"
     inkscape:showpageshadow="2"
     inkscape:pageopacity="0.0"
     inkscape:pagecheckerboard="0"
     inkscape:deskcolor="#d1d1d1"
     inkscape:document-units="mm"
     inkscape:zoom="1.4075477"
     inkscape:cx="249.01465"
     inkscape:cy="106.56832"
     inkscape:window-width="1920"
     inkscape:window-height="992"
     inkscape:window-x="-8"
     inkscape:window-y="-8"
     inkscape:window-maximized="1"
     inkscape:current-layer="layer1" /><defs
     id="defs1" /><g
     inkscape:label="Layer 1"
     inkscape:groupmode="layer"
     id="layer1"><path
       id="rect1"
       style="fill:#29647f;fill-opacity:1;stroke-width:0.234693"
       d="M 3.934127,2.5255602 C 1.754631,2.5255602 0,4.2801912 0,6.4596872 V 23.591974 c 0,2.179496 1.754631,3.934127 3.934127,3.934127 h 30.290657 c 2.179496,0 3.934127,-1.754631 3.934127,-3.934127 V 6.4596872 c 0,-2.179496 -1.754631,-3.934127 -3.934127,-3.934127 z m 9.010819,3.75946 c 2.274158,0 4.172067,0.827694 5.693193,2.483053 1.054245,1.144145 1.79928,2.7383148 2.236039,4.7831698 l -4.913395,0.35295 c -0.549714,-1.817649 -1.592305,-2.726448 -3.128491,-2.726448 -0.978943,0 -1.788715,0.365235 -2.428793,1.09554 -0.632547,0.730306 -0.948779,1.659511 -0.948779,2.787427 0,1.087344 0.312394,1.988084 0.93741,2.702161 0.625017,0.705962 1.415597,1.05885 2.371949,1.05885 0.971411,0 1.743316,-0.312594 2.315621,-0.937411 0.579835,-0.624817 0.922419,-1.521269 1.027844,-2.689758 l 4.80074,0.133842 c -0.316273,2.677787 -1.178234,4.746762 -2.586405,6.207373 -1.40064,1.460611 -3.23049,2.191081 -5.489587,2.191081 -2.296749,0 -4.221011,-0.827694 -5.772258,-2.483053 -1.543716,-1.663474 -2.315621,-3.72439 -2.315621,-6.183085 0,-2.474924 0.786742,-4.556246 2.36058,-6.2440628 1.581368,-1.687818 3.528144,-2.531629 5.839953,-2.531629 z m 8.584489,0.413412 H 33.491496 L 28.702124,18.541636 h 4.733044 v 4.771285 H 21.800736 L 26.56737,11.469717 h -5.037935 z" /><text
       xml:space="preserve"
       style="font-style:normal;font-variant:normal;font-weight:normal;font-stretch:normal;font-size:13.3411px;font-family:'Bauhaus 93';-inkscape-font-specification:'Bauhaus 93, ';text-align:start;writing-mode:lr-tb;direction:ltr;text-anchor:start;fill:#800038;fill-opacity:1;stroke-width:0.166763"
       x="47.812134"
       y="13.672197"
       id="text2"
       transform="scale(0.93073453,1.0744202)"><tspan
         sodipodi:role="line"
         id="tspan2"
         style="font-style:normal;font-variant:normal;font-weight:bold;font-stretch:normal;font-family:'Noto Sans';-inkscape-font-specification:'Noto Sans';fill:#29647f;fill-opacity:1;stroke-width:0.166763"
         x="47.812134"
         y="13.672197">manufacturing</tspan></text><text
       xml:space="preserve"
       style="font-style:normal;font-variant:normal;font-weight:normal;font-stretch:normal;font-size:9.63083px;font-family:'Bauhaus 93';-inkscape-font-specification:'Bauhaus 93, ';text-align:start;writing-mode:lr-tb;direction:ltr;text-anchor:start;fill:#800038;fill-opacity:1;stroke-width:0.206374"
       x="42.098198"
       y="24.667446"
       id="text3"
       transform="scale(1.0654511,0.93856959)"><tspan
         sodipodi:role="line"
         id="tspan3"
         style="font-style:normal;font-variant:normal;font-weight:normal;font-stretch:normal;font-size:9.63083px;font-family:'Noto Sans';-inkscape-font-specification:'Noto Sans';fill:#000000;fill-opacity:1;stroke-width:0.206374"
         x="42.098198"
         y="24.667446">industrial solutions</tspan></text></g></svg>
